<svg xmlns="http://www.w3.org/2000/svg" xmlns:xlink="http://www.w3.org/1999/xlink" width="40" zoomAndPan="magnify" viewBox="0 0 30 30.000001" height="40" preserveAspectRatio="xMidYMid meet" version="1.0"><defs><clipPath id="1bcc480f65"><path d="M 0.484375 0 L 29.515625 0 L 29.515625 29.03125 L 0.484375 29.03125 Z M 0.484375 0 " clip-rule="nonzero"/></clipPath></defs><g clip-path="url(#1bcc480f65)"><path fill="#740000" d="M 29.515625 14.515625 C 29.515625 18.367188 27.988281 22.058594 25.265625 24.78125 C 22.542969 27.503906 18.851562 29.03125 15 29.03125 C 11.148438 29.03125 7.457031 27.503906 4.734375 24.78125 C 2.011719 22.058594 0.484375 18.367188 0.484375 14.515625 C 0.484375 10.667969 2.011719 6.972656 4.734375 4.25 C 7.457031 1.53125 11.148438 0 15 0 C 18.851562 0 22.542969 1.53125 25.265625 4.25 C 27.988281 6.972656 29.515625 10.667969 29.515625 14.515625 Z M 15 7.257812 C 14.769531 7.257812 14.542969 7.304688 14.335938 7.398438 C 14.125 7.492188 13.9375 7.628906 13.78125 7.796875 C 13.628906 7.96875 13.511719 8.167969 13.441406 8.386719 C 13.371094 8.605469 13.34375 8.835938 13.367188 9.0625 L 14.003906 15.425781 C 14.023438 15.675781 14.136719 15.910156 14.324219 16.078125 C 14.507812 16.25 14.75 16.34375 15 16.34375 C 15.25 16.34375 15.492188 16.25 15.675781 16.078125 C 15.863281 15.910156 15.976562 15.675781 15.996094 15.425781 L 16.632812 9.0625 C 16.65625 8.835938 16.628906 8.605469 16.558594 8.386719 C 16.488281 8.167969 16.371094 7.96875 16.21875 7.796875 C 16.0625 7.628906 15.875 7.492188 15.664062 7.398438 C 15.457031 7.304688 15.230469 7.257812 15 7.257812 Z M 15.003906 18.144531 C 14.523438 18.144531 14.0625 18.335938 13.71875 18.675781 C 13.378906 19.015625 13.1875 19.476562 13.1875 19.960938 C 13.1875 20.441406 13.378906 20.902344 13.71875 21.242188 C 14.0625 21.582031 14.523438 21.773438 15.003906 21.773438 C 15.484375 21.773438 15.945312 21.582031 16.285156 21.242188 C 16.628906 20.902344 16.816406 20.441406 16.816406 19.960938 C 16.816406 19.476562 16.628906 19.015625 16.285156 18.675781 C 15.945312 18.335938 15.484375 18.144531 15.003906 18.144531 Z M 15.003906 18.144531 " fill-opacity="1" fill-rule="nonzero"/></g></svg>