<svg xmlns="http://www.w3.org/2000/svg" xmlns:xlink="http://www.w3.org/1999/xlink" width="120" zoomAndPan="magnify" viewBox="0 0 90 36.000001" height="48" preserveAspectRatio="xMidYMid meet" version="1.0"><defs><clipPath id="5ced85a688"><path d="M 33 0 L 57 0 L 57 35.027344 L 33 35.027344 Z M 33 0 " clip-rule="nonzero"/></clipPath></defs><g clip-path="url(#5ced85a688)"><path fill="#41c058" d="M 50.398438 17.261719 C 50.367188 17.464844 50.289062 17.65625 50.171875 17.824219 C 50.054688 17.996094 49.902344 18.132812 49.722656 18.234375 C 49.359375 18.46875 49.046875 18.585938 48.726562 18.699219 C 48.046875 18.9375 47.332031 19.171875 46.578125 19.441406 C 45.78125 19.714844 45.066406 19.984375 44.425781 20.183594 C 43.632812 20.457031 42.875 20.691406 42.15625 20.960938 C 41.617188 21.191406 41.109375 21.496094 40.648438 21.859375 C 40.21875 22.246094 39.84375 22.691406 39.53125 23.183594 C 39.214844 23.726562 39.011719 24.429688 39.011719 25.246094 C 39.011719 26.882812 39.410156 28.128906 40.207031 28.910156 C 41.003906 29.730469 42.476562 30.117188 44.664062 30.117188 C 46.890625 30.117188 48.40625 29.691406 49.203125 28.832031 C 49.996094 27.976562 50.394531 26.769531 50.394531 25.210938 L 50.394531 17.261719 Z M 44.664062 0 C 48.566406 0 51.433594 0.742188 53.261719 2.261719 C 55.09375 3.742188 56.007812 5.648438 56.007812 7.90625 L 56.007812 27.15625 C 56.007812 27.933594 55.851562 28.792969 55.574219 29.726562 C 55.292969 30.664062 54.738281 31.519531 53.859375 32.296875 C 53.023438 33.078125 51.871094 33.742188 50.398438 34.25 C 48.925781 34.753906 47.015625 35.027344 44.667969 35.027344 C 42.320312 35.027344 40.410156 34.753906 38.9375 34.25 C 37.464844 33.742188 36.3125 33.078125 35.476562 32.296875 C 34.699219 31.597656 34.109375 30.714844 33.765625 29.726562 C 33.484375 28.792969 33.324219 27.9375 33.324219 27.160156 L 33.324219 24.082031 C 33.324219 22.445312 33.761719 20.925781 34.636719 19.597656 C 35.515625 18.234375 36.746094 17.300781 38.339844 16.714844 C 39.132812 16.445312 40.050781 16.171875 41.082031 15.820312 C 42.121094 15.46875 43.074219 15.117188 44.03125 14.808594 C 44.984375 14.496094 45.820312 14.179688 46.535156 13.90625 C 46.96875 13.734375 47.40625 13.578125 47.847656 13.441406 L 48.566406 13.089844 C 48.847656 12.9375 49.121094 12.703125 49.402344 12.390625 C 49.679688 12.082031 49.917969 11.730469 50.121094 11.339844 C 50.332031 10.917969 50.441406 10.449219 50.4375 9.976562 L 50.4375 8.730469 C 50.441406 8.273438 50.34375 7.820312 50.15625 7.402344 C 50 6.933594 49.679688 6.507812 49.242188 6.117188 C 48.804688 5.726562 48.207031 5.417969 47.492188 5.179688 C 46.777344 4.949219 45.824219 4.832031 44.746094 4.832031 C 42.515625 4.832031 41.042969 5.261719 40.25 6.15625 C 39.574219 6.9375 39.175781 7.910156 39.097656 9 C 39.097656 9.234375 38.898438 9.390625 38.65625 9.390625 L 33.804688 9.46875 C 33.6875 9.46875 33.578125 9.425781 33.496094 9.34375 C 33.414062 9.261719 33.367188 9.152344 33.367188 9.039062 L 33.367188 7.910156 C 33.367188 6.816406 33.566406 5.804688 34.003906 4.832031 C 34.441406 3.855469 35.121094 3.039062 36.035156 2.335938 C 36.949219 1.636719 38.144531 1.050781 39.574219 0.664062 C 40.96875 0.191406 42.679688 0 44.667969 0 Z M 44.664062 0 " fill-opacity="1" fill-rule="evenodd"/></g></svg>